<svg xmlns="http://www.w3.org/2000/svg" viewBox="0 0 40 40"><g class="color1"><path d="M8.86,10.33a.69.69,0,0,0-.62.29.66.66,0,0,0,0,.68l3.13,5.42a0,0,0,0,1,0,0L6.48,25.39a.74.74,0,0,0,0,.72.66.66,0,0,0,.59.32H11.7a1.4,1.4,0,0,0,1.24-.91l5-8.8-3.17-5.55a1.43,1.43,0,0,0-1.3-.84Z" fill="#005a5f"/></g><g class="color3"><path d="M28.25,4A1.35,1.35,0,0,0,27,4.88L16.74,23.09l6.56,12a1.44,1.44,0,0,0,1.29.88H29.2a.68.68,0,0,0,.61-.29.74.74,0,0,0,0-.72L23.3,23.1s0,0,0,0L33.51,5a.71.71,0,0,0,0-.72A.66.66,0,0,0,32.91,4Z" fill="#cfdc00"/></g></svg>