<svg xmlns="http://www.w3.org/2000/svg" viewBox="0 0 40 40"><g class="color1"><path d="M30.84,9.12A14.73,14.73,0,0,0,20.33,4.76,14.86,14.86,0,0,0,7.45,27.05L5.34,34.76l7.88-2.07a14.87,14.87,0,0,0,7.1,1.81h0A14.88,14.88,0,0,0,35.19,19.63,14.72,14.72,0,0,0,30.84,9.12ZM20.33,32h0A12.35,12.35,0,0,1,14,30.27L13.58,30,8.91,31.23l1.25-4.56-.3-.47A12.36,12.36,0,0,1,29.07,10.89,12.37,12.37,0,0,1,20.33,32Z" fill="#25d366" fill-rule="evenodd"/><path d="M27.82,23.17c-.09-.16-.34-.25-.71-.43s-2.2-1.09-2.54-1.21-.59-.19-.84.18-1,1.21-1.17,1.46-.44.28-.81.09a10.12,10.12,0,0,1-3-1.84,11.49,11.49,0,0,1-2.06-2.57c-.22-.38,0-.58.16-.76s.37-.44.56-.65a2.82,2.82,0,0,0,.37-.62.7.7,0,0,0,0-.65c-.09-.19-.84-2-1.15-2.76s-.6-.63-.83-.64h-.71a1.36,1.36,0,0,0-1,.46,4.13,4.13,0,0,0-1.3,3.1,7.23,7.23,0,0,0,1.51,3.84,16.58,16.58,0,0,0,6.35,5.61,21,21,0,0,0,2.12.78,4.9,4.9,0,0,0,2.33.15,3.81,3.81,0,0,0,2.51-1.76A3.16,3.16,0,0,0,27.82,23.17Z" fill="#25d366" fill-rule="evenodd"/></g></svg>