<svg xmlns="http://www.w3.org/2000/svg" viewBox="0 0 40 40"><g class="color1"><path d="M30.6,9.37A14.52,14.52,0,0,0,7.75,26.88L5.69,34.41l7.69-2a14.57,14.57,0,0,0,6.94,1.76h0A14.53,14.53,0,0,0,34.84,19.64,14.38,14.38,0,0,0,30.6,9.37ZM20.33,31.7h0A12,12,0,0,1,14.18,30l-.44-.26L9.17,31l1.22-4.46-.28-.45A12.06,12.06,0,1,1,20.33,31.7Z" fill="#25d366" fill-rule="evenodd"/><path d="M27.64,23.09c-.09-.15-.33-.24-.69-.42s-2.15-1.06-2.48-1.18-.58-.19-.82.18-.94,1.18-1.15,1.42-.42.27-.78.09a9.73,9.73,0,0,1-2.92-1.8,10.9,10.9,0,0,1-2-2.51c-.21-.37,0-.56.16-.74s.36-.43.55-.64a2.45,2.45,0,0,0,.36-.6.68.68,0,0,0,0-.64c-.09-.18-.82-2-1.12-2.69s-.59-.61-.82-.63h-.69a1.32,1.32,0,0,0-1,.46,4.06,4.06,0,0,0-1.27,3,7,7,0,0,0,1.48,3.75,16.09,16.09,0,0,0,6.2,5.48,19.12,19.12,0,0,0,2.07.76,5,5,0,0,0,2.28.15,3.74,3.74,0,0,0,2.45-1.73A3,3,0,0,0,27.64,23.09Z" fill="#25d366" fill-rule="evenodd"/></g></svg>