<svg xmlns="http://www.w3.org/2000/svg" viewBox="0 0 40 40"><g class="color1"><path d="M33.63,4H6.36A2.34,2.34,0,0,0,4,6.31V33.69A2.34,2.34,0,0,0,6.36,36H33.63A2.34,2.34,0,0,0,36,33.69V6.31A2.34,2.34,0,0,0,33.63,4" fill="#0a66c2"/></g><g class="color2"><path d="M31.27,31.27H26.52V23.84c0-1.77,0-4.05-2.46-4.05s-2.85,1.93-2.85,3.92v7.56H16.47V16H21v2.08h.06a5,5,0,0,1,4.5-2.46c4.8,0,5.69,3.16,5.69,7.27Z" fill="#fff"/><path d="M11.12,13.91a2.75,2.75,0,1,1,2.75-2.75,2.75,2.75,0,0,1-2.75,2.75h0" fill="#fff"/><rect x="8.74" y="16" width="4.75" height="15.27" fill="#fff"/></g></svg>