<svg xmlns="http://www.w3.org/2000/svg" viewBox="0 0 40 40"><g class="color1"><path d="M23.26,22.14H16.82a1,1,0,1,0,0,2.07h6.44a1,1,0,0,0,0-2.07Z" fill="#f38936"/><path d="M16.74,17.86h3.82a1,1,0,0,0,0-2.07H16.74a1,1,0,0,0,0,2.07Z" fill="#f38936"/><path d="M20,4A16,16,0,1,0,36,20,16,16,0,0,0,20,4Zm8.5,19.18a5.32,5.32,0,0,1-5.32,5.32H16.82a5.32,5.32,0,0,1-5.32-5.32V16.82a5.32,5.32,0,0,1,5.32-5.32h3.29a5.32,5.32,0,0,1,5.28,5.36,1.06,1.06,0,0,0,1,1h1.09a1.08,1.08,0,0,1,1,1.14Z" fill="#f38936"/></g></svg>