<svg xmlns="http://www.w3.org/2000/svg" viewBox="0 0 40 40"><g class="color1"><path d="M20,4a16,16,0,0,0-5.83,30.89,15.37,15.37,0,0,1,.1-4.44c.29-1.3,1.87-8,1.87-8a5.87,5.87,0,0,1-.47-2.37c0-2.23,1.29-3.89,2.9-3.89a1.23,1.23,0,0,1,.27,0,2,2,0,0,1,1.73,2.23c0,1.34-.87,3.43-1.33,5.34a2.22,2.22,0,0,0-.07.68,2.33,2.33,0,0,0,2.44,2.22c2.82,0,5-3,5-7.33a5.61,5.61,0,0,0,0-.58,6.31,6.31,0,0,0-6.68-5.92H19.6a6.93,6.93,0,0,0-6.91,7,6.22,6.22,0,0,0,1.19,3.65.52.52,0,0,1,.11.46c-.12.5-.38,1.52-.45,1.81s-.24.36-.54.21c-2-.91-3.25-3.84-3.26-6.2,0-5,3.67-9.68,10.58-9.68,5.54,0,9.86,4,9.86,9.25,0,5.52-3.47,10-8.29,10a4.22,4.22,0,0,1-3.66-1.84l-1,3.81a16.76,16.76,0,0,1-1.91,4.09A16,16,0,1,0,20,4Z" fill="#e60023"/></g></svg>