<svg xmlns="http://www.w3.org/2000/svg" viewBox="0 0 40 40"><g class="color1"><path d="M20.21,20.86l-3,8.63a9.91,9.91,0,0,0,6.07-.16l-.07-.14Z" fill="#0073aa"/><path d="M10.11,20a9.88,9.88,0,0,0,5.57,8.9L11,16A9.88,9.88,0,0,0,10.11,20Z" fill="#0073aa"/><path d="M26.67,19.52a5.19,5.19,0,0,0-.82-2.73,4.65,4.65,0,0,1-1-2.32,1.71,1.71,0,0,1,1.66-1.75h.13a9.24,9.24,0,0,0-1.26-1A9.88,9.88,0,0,0,11.7,14.58h.63c1,0,2.64-.13,2.64-.13a.41.41,0,0,1,.06.82,7.6,7.6,0,0,1-1.13.09l3.6,10.72,2.17-6.5-1.54-4.22c-.5,0-1-.09-1-.09a.41.41,0,1,1,.06-.82s1.58.13,2.61.13,2.63-.13,2.63-.13a.41.41,0,0,1,.06.82,7.6,7.6,0,0,1-1.13.09L24.91,26l1-3.29A11.76,11.76,0,0,0,26.67,19.52Z" fill="#0073aa"/><path d="M20,4A16,16,0,1,0,36,20,16,16,0,0,0,20,4Zm0,27A11,11,0,1,1,31,20,11,11,0,0,1,20,31Z" fill="#0073aa"/><path d="M25,28.55a9.89,9.89,0,0,0,3.68-13.29,8.42,8.42,0,0,1,.07,1A9.17,9.17,0,0,1,28,19.81Z" fill="#0073aa"/></g></svg>