<svg xmlns="http://www.w3.org/2000/svg" viewBox="0 0 40 40"><g class="color1"><path d="M20,4A16,16,0,1,0,36,20,16,16,0,0,0,20,4Zm.25,25.67a10,10,0,0,1-4.76-1.21l-5.28,1.38,1.42-5.16a10,10,0,0,1,15.67-12h-.05a10,10,0,0,1-7,17Z" fill="#25d366"/><path d="M20.2,11.44a8.29,8.29,0,0,0-7,12.68l.2.31-.84,3.06,3.14-.82.3.18a8.28,8.28,0,1,0,4.2-15.41Zm4.94,11.87a2.53,2.53,0,0,1-1.68,1.19,3.48,3.48,0,0,1-1.57-.1c-.36-.12-.82-.27-1.42-.52a11.24,11.24,0,0,1-4.25-3.76,5,5,0,0,1-1-2.58,2.8,2.8,0,0,1,.87-2.07.88.88,0,0,1,.66-.31h.48c.15,0,.36-.08.56.42s.7,1.73.76,1.85a.43.43,0,0,1,0,.44,1.52,1.52,0,0,1-.24.41c-.13.15-.27.33-.38.44a.37.37,0,0,0-.11.51A8,8,0,0,0,19.21,21a6.55,6.55,0,0,0,2,1.23c.25.13.4.13.54-.06s.63-.75.79-1,.32-.21.55-.13,1.47.68,1.71.81.41.19.47.29A2.13,2.13,0,0,1,25.14,23.31Z" fill="#25d366"/></g></svg>