<svg xmlns="http://www.w3.org/2000/svg" viewBox="0 0 40 40"><g class="color1"><circle cx="20" cy="20" r="16" fill="#1ab7ea"/></g><g class="color2"><path d="M30,15q-.13,3-4.25,8.32-4.25,5.52-7.18,5.52-1.82,0-3.08-3.36l-1.68-6.16c-.62-2.24-1.29-3.36-2-3.36a6.55,6.55,0,0,0-1.64,1l-1-1.26c1-.9,2-1.81,3-2.71a6.88,6.88,0,0,1,3.09-1.87c1.62-.15,2.61.95,3,3.32q.6,3.84.84,4.77c.47,2.12,1,3.18,1.54,3.18s1.09-.69,2-2.06A8,8,0,0,0,24,17.2c.13-1.19-.34-1.79-1.4-1.79a4.05,4.05,0,0,0-1.54.34c1-3.35,3-5,5.86-4.88Q30.14,11,30,15Z" fill="#fff"/></g></svg>