<svg xmlns="http://www.w3.org/2000/svg" viewBox="0 0 40 40"><g class="color1"><path d="M14.43,32.2c11.32,0,17.51-9.39,17.51-17.52,0-.26,0-.53,0-.79A12.42,12.42,0,0,0,35,10.7a12.61,12.61,0,0,1-3.54,1,6.2,6.2,0,0,0,2.72-3.41,12.3,12.3,0,0,1-3.92,1.49A6.16,6.16,0,0,0,19.61,14a6.62,6.62,0,0,0,.16,1.41A17.53,17.53,0,0,1,7.08,8.93,6.17,6.17,0,0,0,9,17.15a6.24,6.24,0,0,1-2.79-.76v.08a6.18,6.18,0,0,0,4.94,6,6.21,6.21,0,0,1-1.62.22,6.15,6.15,0,0,1-1.15-.11,6.15,6.15,0,0,0,5.75,4.27,12.35,12.35,0,0,1-7.65,2.64A12,12,0,0,1,5,29.45a17.54,17.54,0,0,0,9.43,2.75" fill="#1da1f2"/></g></svg>