<svg xmlns="http://www.w3.org/2000/svg" viewBox="0 0 40 40"><g class="color1"><path d="M20,5A15,15,0,0,0,6.37,13.75H9.18a12.56,12.56,0,0,1,5.9-5.23,18,18,0,0,0-2,5.23h2.62C16.69,10,18.4,7.5,20,7.5s3.31,2.45,4.26,6.25h2.62a18,18,0,0,0-2-5.23,12.56,12.56,0,0,1,5.9,5.23h2.81A15,15,0,0,0,20,5Z" fill="#32373c"/><path d="M6.37,26.25a15,15,0,0,0,27.26,0H30.82a12.56,12.56,0,0,1-5.9,5.23,18,18,0,0,0,2-5.23H24.26c-1,3.8-2.66,6.25-4.26,6.25s-3.31-2.45-4.26-6.25H13.12a18,18,0,0,0,2,5.23,12.56,12.56,0,0,1-5.9-5.23Z" fill="#32373c"/><path d="M3.3,15.69H5.18l1.19,5.89,1.56-5.89H9.25l1.56,5.89L12,15.69h1.88l-2.3,8.62H10.13L8.59,18.5,7.07,24.31H5.59Z" fill="#32373c"/><path d="M14.71,15.69h1.87l1.2,5.89,1.56-5.89h1.31l1.56,5.89,1.21-5.89h1.87L23,24.31H21.53L20,18.5l-1.52,5.81H17Z" fill="#32373c"/><path d="M26.11,15.69H28l1.19,5.89,1.57-5.89h1.31l1.56,5.89,1.2-5.89H36.7l-2.3,8.62H32.94L31.4,18.5l-1.52,5.81H28.4Z" fill="#32373c"/></g></svg>