<svg xmlns="http://www.w3.org/2000/svg" viewBox="0 0 40 40"><g class="color1"><path d="M15.17,11.58a9.65,9.65,0,0,0-3,13.3l.22.36-1,3.57,3.65-1,.35.19a9.53,9.53,0,0,0,4.91,1.36l0,0a9.65,9.65,0,1,0-5.13-17.82ZM26,23.85a3,3,0,0,1-2,1.38,3.87,3.87,0,0,1-1.82-.11c-.42-.14-1-.32-1.66-.62a12.82,12.82,0,0,1-4.94-4.36,5.57,5.57,0,0,1-1.19-3,3.25,3.25,0,0,1,1-2.42,1.06,1.06,0,0,1,.77-.36h.56c.17,0,.41-.08.65.5s.82,2,.89,2.15a.52.52,0,0,1,0,.51A2.36,2.36,0,0,1,18,18c-.15.17-.32.36-.44.51s-.29.3-.12.59a8.89,8.89,0,0,0,1.61,2,7.72,7.72,0,0,0,2.36,1.44.5.5,0,0,0,.63-.07,9.07,9.07,0,0,0,.92-1.14c.19-.29.37-.24.65-.14s1.71.79,2,.94.48.22.55.34A2.33,2.33,0,0,1,26,23.85Z" fill="#25d366"/><path d="M4,4V36H36V4ZM20.26,31.29a11.56,11.56,0,0,1-5.55-1.41L8.55,31.49l1.65-6a11.62,11.62,0,0,1,18.28-14v0a11.62,11.62,0,0,1-8.22,19.83Z" fill="#25d366"/></g></svg>