<svg xmlns="http://www.w3.org/2000/svg" viewBox="0 0 40 40"><g class="color1"><circle cx="20" cy="20" r="16" fill="#005a5f"/></g><g class="color2"><path d="M13.09,14.71a.43.43,0,0,0-.39.18.41.41,0,0,0,0,.43l2,3.41s0,0,0,0L11.59,24.2a.45.45,0,0,0,0,.45.43.43,0,0,0,.37.21h2.92a.89.89,0,0,0,.78-.58l3.14-5.55-2-3.49a.91.91,0,0,0-.82-.53Z" fill="#fff"/><path d="M25.3,10.72a.84.84,0,0,0-.77.56s-6.27,11.1-6.47,11.47l4.13,7.58a.9.9,0,0,0,.81.55h2.9a.46.46,0,0,0,.39-.18.45.45,0,0,0,0-.45l-4.1-7.49v0l6.44-11.38a.48.48,0,0,0,0-.45.44.44,0,0,0-.39-.19Z" fill="#fff"/></g></svg>