<svg xmlns="http://www.w3.org/2000/svg" viewBox="0 0 40 40"><g class="color1"><circle cx="20" cy="20" r="16" fill="#32373c"/></g><g class="color2"><path d="M20,9a11,11,0,0,0-10,6.42h2.07a9.17,9.17,0,0,1,4.32-3.84A13.15,13.15,0,0,0,15,15.42h1.92c.69-2.79,1.95-4.59,3.12-4.59s2.43,1.8,3.12,4.59H25a13.15,13.15,0,0,0-1.43-3.84,9.17,9.17,0,0,1,4.32,3.84H30A11,11,0,0,0,20,9Z" fill="#fff"/><path d="M10,24.58a11,11,0,0,0,20,0H27.93a9.17,9.17,0,0,1-4.32,3.84A13.15,13.15,0,0,0,25,24.58H23.12c-.69,2.79-1.95,4.59-3.12,4.59s-2.43-1.8-3.12-4.59H15a13.15,13.15,0,0,0,1.43,3.84,9.17,9.17,0,0,1-4.32-3.84Z" fill="#fff"/><path d="M8.52,17H9.81l.82,4,1.08-4h.9l1.07,4,.83-4H15.8L14.22,23h-1l-1.05-4-1.05,4h-1Z" fill="#fff"/><path d="M16.36,17h1.29l.82,4,1.08-4h.9l1.07,4,.83-4h1.29L22.06,23h-1L20,19,19,23h-1Z" fill="#fff"/><path d="M24.2,17h1.29l.82,4,1.08-4h.9l1.07,4,.83-4h1.29L29.9,23h-1l-1.05-4-1.05,4h-1Z" fill="#fff"/></g></svg>