<svg xmlns="http://www.w3.org/2000/svg" viewBox="0 0 40 40"><g class="color1"><circle cx="20" cy="20" r="16" fill="#1da1f2"/></g><g class="color2"><path d="M17.07,28.44a10.9,10.9,0,0,0,11-11c0-.16,0-.33,0-.49A8.15,8.15,0,0,0,30,15a8.09,8.09,0,0,1-2.22.61,3.89,3.89,0,0,0,1.7-2.14,8,8,0,0,1-2.45.94,3.8,3.8,0,0,0-2.82-1.22A3.86,3.86,0,0,0,20.33,17a3.65,3.65,0,0,0,.1.88,10.92,10.92,0,0,1-7.95-4A3.88,3.88,0,0,0,12,15.8,3.84,3.84,0,0,0,13.68,19a3.8,3.8,0,0,1-1.74-.48v0A3.85,3.85,0,0,0,15,22.36a3.73,3.73,0,0,1-1,.14,3.55,3.55,0,0,1-.73-.08,3.84,3.84,0,0,0,3.6,2.68,7.72,7.72,0,0,1-4.79,1.65,6.9,6.9,0,0,1-.92-.05,10.75,10.75,0,0,0,5.89,1.74" fill="#fff"/></g></svg>