<svg xmlns="http://www.w3.org/2000/svg" viewBox="0 0 40 40"><g class="color1"><circle cx="20" cy="20" r="16" fill="#010101"/></g><g class="color2"><path d="M20.42,10.52c1,0,2.06,0,3.09,0a4.89,4.89,0,0,0,1.39,3.3,5.6,5.6,0,0,0,3.35,1.42v3.19a8.45,8.45,0,0,1-3.32-.77,9.05,9.05,0,0,1-1.28-.74c0,2.32,0,4.63,0,6.93A6,6,0,0,1,22.56,27a5.89,5.89,0,0,1-4.68,2.54,5.73,5.73,0,0,1-3.23-.81,6,6,0,0,1-2.89-4.52c0-.4,0-.79,0-1.18a6,6,0,0,1,6.91-5.29c0,1.17,0,2.34,0,3.51a2.76,2.76,0,0,0-2.39.3,2.63,2.63,0,0,0-1.08,1.38,3.06,3.06,0,0,0-.11,1.28,2.7,2.7,0,0,0,5,1,1.94,1.94,0,0,0,.33-.85c.07-1.41,0-2.82,0-4.24,0-3.19,0-6.37,0-9.55Z" fill="#fff"/></g></svg>