<svg xmlns="http://www.w3.org/2000/svg" viewBox="0 0 40 40"><g class="color1"><path d="M20.24,20.94,17,30.35a11.22,11.22,0,0,0,3,.44,10.93,10.93,0,0,0,3.58-.64,1,1,0,0,1-.07-.15Z" fill="#0073aa"/><path d="M9.21,20a10.79,10.79,0,0,0,6.08,9.71l-5.14-14.1A10.72,10.72,0,0,0,9.21,20Z" fill="#0073aa"/><path d="M27.28,19.53a5.71,5.71,0,0,0-.89-3A5.13,5.13,0,0,1,25.33,14a1.87,1.87,0,0,1,1.82-1.91h.14A9.77,9.77,0,0,0,25.94,11,10.79,10.79,0,0,0,11,14.09h.69c1.13,0,2.88-.14,2.88-.14a.45.45,0,0,1,.41.36.45.45,0,0,1-.35.53,8.16,8.16,0,0,1-1.23.1l3.93,11.74,2.36-7.08L18,15c-.58,0-1.13-.1-1.13-.1a.45.45,0,0,1,.07-.89s1.71.09,2.84.09S22.65,14,22.65,14a.45.45,0,0,1,.07.89,8.16,8.16,0,0,1-1.23.1l3.9,11.67L26.46,23A13.07,13.07,0,0,0,27.28,19.53Z" fill="#0073aa"/><path d="M25.49,29.33a10.8,10.8,0,0,0,4-14.51h0a10.52,10.52,0,0,1,.14,1.11,10.29,10.29,0,0,1-.82,3.87Z" fill="#0073aa"/><path d="M4,4V36H36V4ZM20,32A12,12,0,1,1,32,20,12,12,0,0,1,20,32Z" fill="#0073aa"/></g></svg>