<svg xmlns="http://www.w3.org/2000/svg" viewBox="0 0 40 40"><g class="color1"><path d="M4,4V36H36V4ZM26.23,22.48a5.8,5.8,0,0,1-4.7,2.35,4,4,0,0,1-2.63-1c-.2.81-.52,2.05-.64,2.48s-1.42,4.21-2.58,3.89-.46-4.22-.34-4.72c.2-.84,1.26-5.34,1.43-6.09a5.26,5.26,0,0,1-.34-1.84c0-1.83,1.11-3.27,2.52-3.27h.16a1.85,1.85,0,0,1,1.71,2,9.64,9.64,0,0,1-.57,2.54c-.16.52-.33,1.06-.45,1.57a1.43,1.43,0,0,0,.25,1.23,1.57,1.57,0,0,0,1.23.56,2.85,2.85,0,0,0,2.33-1.63,8.47,8.47,0,0,0,.95-4.1c0-2.45-1.69-4-4.41-4h-.23a5.07,5.07,0,0,0-5,5.12,3,3,0,0,0,.67,2,.87.87,0,0,1,.23.92,5.62,5.62,0,0,0-.23.92.72.72,0,0,1-.7.57.67.67,0,0,1-.31-.07C13,21.26,12,19.53,12,17.26a7.24,7.24,0,0,1,2.13-5,8.58,8.58,0,0,1,6.33-2.44,7.78,7.78,0,0,1,5.46,2.09A6.66,6.66,0,0,1,28,16.67,9.5,9.5,0,0,1,26.23,22.48Z" fill="#e60023"/></g></svg>