<svg xmlns="http://www.w3.org/2000/svg" viewBox="0 0 40 40"><g class="color1"><path d="M4,4V36H36V4ZM28,15.93v.71A11.6,11.6,0,0,1,16.29,28.13h0A11.67,11.67,0,0,1,10,26.3a8.37,8.37,0,0,0,1,.05,8.18,8.18,0,0,0,5.07-1.77,4.09,4.09,0,0,1-3.83-2.85,3.87,3.87,0,0,0,1.85-.07,4.1,4.1,0,0,1-3.29-4V17.6a4,4,0,0,0,1.85.51,4.09,4.09,0,0,1-1.82-3.41,4.16,4.16,0,0,1,.55-2.07,11.7,11.7,0,0,0,8.46,4.29,4.1,4.1,0,0,1,7-3.74,8.21,8.21,0,0,0,2.61-1,4.12,4.12,0,0,1-1.81,2.27A8.45,8.45,0,0,0,30,13.8,8.44,8.44,0,0,1,28,15.93Z" fill="#1da1f2"/></g></svg>