<svg xmlns="http://www.w3.org/2000/svg" viewBox="0 0 40 40"><g class="color1"><path d="M25.18,24.83V14.33a12.34,12.34,0,0,0,7.2,2.3v-4a6.83,6.83,0,0,1-3.9-2.3,6.87,6.87,0,0,1-3.1-4.7h-3.8v20.7a4.5,4.5,0,0,1-3.1,4,4.27,4.27,0,0,1-4.8-1.6,4.35,4.35,0,0,1,2-8.2,5.85,5.85,0,0,1,1.3.2v-4a9.51,9.51,0,0,0-8.6,5.8,9.37,9.37,0,0,0,1.9,10.2,9.49,9.49,0,0,0,5.4,1.6A9.43,9.43,0,0,0,25.18,24.83Z" fill="#010101"/></g><g class="color3"><path d="M17,16.63v-1.2a5.28,5.28,0,0,0-1.3-.1,9.58,9.58,0,0,0-9.1,6.6,9.34,9.34,0,0,0,3.6,10.6,9.34,9.34,0,0,1-1.8-10.2,9.52,9.52,0,0,1,8.6-5.7Z" fill="#25f4ee"/><path d="M17.18,30.43a4.29,4.29,0,0,0,4.3-4.1V5.63h3.8c0-.4-.1-.9-.1-1.3H20V25a4.38,4.38,0,0,1-4.3,4.2,4.55,4.55,0,0,1-2-.5A4.55,4.55,0,0,0,17.18,30.43Z" fill="#25f4ee"/><path d="M32.38,12.63v-1.1a6.67,6.67,0,0,1-3.9-1.2,6.83,6.83,0,0,0,3.9,2.3Z" fill="#25f4ee"/></g><g class="color4"><path d="M28.48,10.33a7.43,7.43,0,0,1-1.8-4.7h-1.4a7.74,7.74,0,0,0,3.2,4.7Z" fill="#fe2c55"/><path d="M15.68,20.53a4.35,4.35,0,0,0-2,8.2,4.1,4.1,0,0,1-.3-4.5,4.51,4.51,0,0,1,3.9-2.4,5.85,5.85,0,0,1,1.3.2v-5.3a5.7,5.7,0,0,0-1.3-.1H17v4A5.28,5.28,0,0,0,15.68,20.53Z" fill="#fe2c55"/><path d="M32.38,12.63v4a12.34,12.34,0,0,1-7.2-2.3v10.5a9.48,9.48,0,0,1-14.9,7.8,9.45,9.45,0,0,0,16.4-6.4V15.63a12.34,12.34,0,0,0,7.2,2.3v-5.1A7.72,7.72,0,0,1,32.38,12.63Z" fill="#fe2c55"/></g></svg>