<svg xmlns="http://www.w3.org/2000/svg" viewBox="0 0 40 40"><g class="color1"><path d="M36,33.3A2.69,2.69,0,0,1,33.3,36H6.7A2.69,2.69,0,0,1,4,33.3V6.7A2.69,2.69,0,0,1,6.7,4H33.4A2.67,2.67,0,0,1,36,6.7Z" fill="#f38936"/></g><g class="color2"><path d="M29.3,17.3H28A1.32,1.32,0,0,1,26.7,16,6.7,6.7,0,0,0,20,9.3H16A6.7,6.7,0,0,0,9.3,16v8A6.7,6.7,0,0,0,16,30.7h8A6.7,6.7,0,0,0,30.7,24V18.7A1.37,1.37,0,0,0,29.3,17.3ZM15.9,14.7h4.8a1.3,1.3,0,1,1,0,2.6H15.9a1.3,1.3,0,1,1,0-2.6Zm8.2,10.6H16a1.3,1.3,0,0,1,0-2.6h8.1a1.3,1.3,0,0,1,0,2.6Z" fill="#fff"/></g></svg>