<svg xmlns="http://www.w3.org/2000/svg" viewBox="0 0 40 40"><g class="color1"><path d="M20,4A16,16,0,0,0,5.46,13.33h3a13.4,13.4,0,0,1,6.29-5.58,18.78,18.78,0,0,0-2.08,5.58h2.79c1-4.05,2.84-6.66,4.54-6.66s3.53,2.61,4.54,6.66h2.79a18.78,18.78,0,0,0-2.08-5.58,13.4,13.4,0,0,1,6.29,5.58h3A16,16,0,0,0,20,4Z" fill="#32373c"/><path d="M5.46,26.67a16,16,0,0,0,29.08,0h-3a13.4,13.4,0,0,1-6.29,5.58,18.78,18.78,0,0,0,2.08-5.58H24.54c-1,4-2.84,6.66-4.54,6.66s-3.53-2.61-4.54-6.66H12.67a18.78,18.78,0,0,0,2.08,5.58,13.4,13.4,0,0,1-6.29-5.58Z" fill="#32373c"/><path d="M3.3,15.69H5.18l1.19,5.89,1.56-5.89H9.25l1.56,5.89L12,15.69h1.88l-2.3,8.62H10.13L8.59,18.5,7.07,24.31H5.59Z" fill="#32373c"/><path d="M14.71,15.69h1.87l1.2,5.89,1.56-5.89h1.31l1.56,5.89,1.21-5.89h1.87L23,24.31H21.53L20,18.5l-1.52,5.81H17Z" fill="#32373c"/><path d="M26.11,15.69H28l1.19,5.89,1.57-5.89h1.31l1.56,5.89,1.2-5.89H36.7l-2.3,8.62H32.94L31.4,18.5l-1.52,5.81H28.4Z" fill="#32373c"/></g></svg>