<svg xmlns="http://www.w3.org/2000/svg" viewBox="0 0 40 40"><g class="color1"><path d="M15.9,17.3h4.8a1.3,1.3,0,1,0,0-2.6H15.9a1.3,1.3,0,1,0,0,2.6Z" fill="#f38936"/><path d="M24.1,22.7H16a1.3,1.3,0,0,0,0,2.6h8.1a1.3,1.3,0,0,0,0-2.6Z" fill="#f38936"/><path d="M33.4,4H6.68A2.68,2.68,0,0,0,4,6.7V33.32A2.68,2.68,0,0,0,6.7,36H33.32A2.68,2.68,0,0,0,36,33.3V6.7A2.67,2.67,0,0,0,33.4,4ZM30.7,24A6.7,6.7,0,0,1,24,30.7H16A6.7,6.7,0,0,1,9.3,24V16A6.7,6.7,0,0,1,16,9.3h4A6.7,6.7,0,0,1,26.7,16,1.32,1.32,0,0,0,28,17.3h1.36a1.37,1.37,0,0,1,1.34,1.4Z" fill="#f38936"/></g></svg>