<svg xmlns="http://www.w3.org/2000/svg" viewBox="0 0 40 40"><g class="color1"><path d="M28.73,8.07a11.5,11.5,0,0,0-8-3.07,12.63,12.63,0,0,0-9.32,3.6A10.61,10.61,0,0,0,8.21,16c0,3.34,1.4,5.91,3.74,6.86a1.28,1.28,0,0,0,.47.1,1.06,1.06,0,0,0,1-.84c.08-.3.26-1,.34-1.35a1.27,1.27,0,0,0-.34-1.37,4.35,4.35,0,0,1-1-3,7.5,7.5,0,0,1,7.77-7.55c4,0,6.5,2.28,6.5,5.95a12.41,12.41,0,0,1-1.4,6,4.17,4.17,0,0,1-3.44,2.4,2.28,2.28,0,0,1-1.81-.83,2.08,2.08,0,0,1-.36-1.81c.18-.75.42-1.54.66-2.3a14.23,14.23,0,0,0,.83-3.76,2.73,2.73,0,0,0-2.74-3c-2.09,0-3.73,2.12-3.73,4.83a7.2,7.2,0,0,0,.52,2.7c-.27,1.11-1.83,7.73-2.12,9-.18.73-1.21,6.49.5,7,1.92.51,3.64-5.1,3.81-5.73s.64-2.46.94-3.66a5.83,5.83,0,0,0,3.87,1.5,8.64,8.64,0,0,0,6.93-3.47,14,14,0,0,0,2.61-8.52A9.85,9.85,0,0,0,28.73,8.07Z" fill="#e60023"/></g></svg>