<svg xmlns="http://www.w3.org/2000/svg" viewBox="0 0 40 40"><g class="color1"><path d="M20.61,6c1.53,0,3.05,0,4.57,0a7.24,7.24,0,0,0,2,4.87A8.24,8.24,0,0,0,32.16,13v4.7a12.24,12.24,0,0,1-4.9-1.13,15.36,15.36,0,0,1-1.89-1.08c0,3.41,0,6.81,0,10.21a8.89,8.89,0,0,1-1.58,4.6A8.7,8.7,0,0,1,16.88,34a8.52,8.52,0,0,1-4.76-1.2,8.8,8.8,0,0,1-4.26-6.66c0-.59,0-1.17,0-1.74A8.79,8.79,0,0,1,18,16.59c0,1.73-.05,3.46-.05,5.18a4,4,0,0,0-5.11,2.48,4.41,4.41,0,0,0-.16,1.88A4,4,0,0,0,20,27.6a2.75,2.75,0,0,0,.48-1.24c.12-2.09.07-4.17.08-6.25,0-4.71,0-9.4,0-14.09Z" fill="#010101"/></g></svg>