<svg xmlns="http://www.w3.org/2000/svg" xmlns:xlink="http://www.w3.org/1999/xlink" viewBox="0 0 128 128"><defs><clipPath id="clip-path"><path d="M20,0H128a0,0,0,0,1,0,0V108a20,20,0,0,1-20,20H0a0,0,0,0,1,0,0V20A20,20,0,0,1,20,0Z" style="fill:none"/></clipPath></defs><g id="Hintergrund"><path d="M20,0H128a0,0,0,0,1,0,0V108a20,20,0,0,1-20,20H0a0,0,0,0,1,0,0V20A20,20,0,0,1,20,0Z" style="fill:#0d5a93"/></g><g id="Schatten"><g style="clip-path:url(#clip-path)"><polygon points="40.8 33.93 147.79 174.24 201.79 125.13 106.13 29.47 40.8 33.93" style="fill:#035089"/><polygon points="30.48 44.25 137.47 183.88 191.47 134.76 95.81 39.1 30.48 44.25" style="fill:#035089"/><polygon points="21.67 92.15 122.47 192.95 176.47 143.83 80.82 48.18 21.67 92.15" style="fill:#035089"/></g></g><g id="Icon"><rect x="20.38" y="49.07" width="67.17" height="44.58" rx="4.45" style="fill:#fff"/><path d="M103.52,28.65H45.25A4.45,4.45,0,0,0,40.8,33.1v.83H98.24a4.45,4.45,0,0,1,4.45,4.45V73.23h.83A4.44,4.44,0,0,0,108,68.79V33.1A4.45,4.45,0,0,0,103.52,28.65Z" style="fill:#fff"/><path d="M93.2,39H34.93a4.45,4.45,0,0,0-4.45,4.45v.83H87.92a4.45,4.45,0,0,1,4.45,4.45V83.55h.83a4.45,4.45,0,0,0,4.45-4.45V43.42A4.45,4.45,0,0,0,93.2,39Z" style="fill:#7bd5ff"/><path d="M82.65,61.47H25.29V54H82.65Z" style="fill:#035089"/><path d="M38.35,88.75H25.29V66.37H38.35Z" style="fill:#7bd5ff"/><path d="M82.65,88.75H43.25V66.37h39.4Z" style="fill:#035089"/></g></svg>