<svg xmlns="http://www.w3.org/2000/svg" viewBox="0 0 40 40"><g class="color1"><circle cx="20" cy="20" r="16" fill="#dd2a7b"/></g><g class="color2"><path d="M20,12.21c2.54,0,2.84,0,3.84.06a5.17,5.17,0,0,1,1.76.32,3.11,3.11,0,0,1,1.81,1.81,5.17,5.17,0,0,1,.32,1.76c.05,1,.06,1.3.06,3.84s0,2.84-.06,3.84a5.17,5.17,0,0,1-.32,1.76,3.11,3.11,0,0,1-1.81,1.81,5.17,5.17,0,0,1-1.76.32c-1,.05-1.3.06-3.84.06s-2.84,0-3.84-.06a5.17,5.17,0,0,1-1.76-.32,3.11,3.11,0,0,1-1.81-1.81,5.17,5.17,0,0,1-.32-1.76c0-1-.06-1.3-.06-3.84s0-2.84.06-3.84a5.17,5.17,0,0,1,.32-1.76,3.11,3.11,0,0,1,1.81-1.81,5.17,5.17,0,0,1,1.76-.32c1,0,1.3-.06,3.84-.06m0-1.71c-2.58,0-2.9,0-3.92.06a6.65,6.65,0,0,0-2.3.44A4.77,4.77,0,0,0,11,13.78a6.65,6.65,0,0,0-.44,2.3c-.05,1-.06,1.34-.06,3.92s0,2.9.06,3.92a6.65,6.65,0,0,0,.44,2.3A4.77,4.77,0,0,0,13.78,29a6.65,6.65,0,0,0,2.3.44c1,0,1.34.06,3.92.06s2.9,0,3.92-.06a6.65,6.65,0,0,0,2.3-.44A4.77,4.77,0,0,0,29,26.22a6.65,6.65,0,0,0,.44-2.3c0-1,.06-1.34.06-3.92s0-2.9-.06-3.92a6.65,6.65,0,0,0-.44-2.3A4.77,4.77,0,0,0,26.22,11a6.65,6.65,0,0,0-2.3-.44c-1-.05-1.34-.06-3.92-.06Z" fill="#fff"/><path d="M20,15.12A4.88,4.88,0,1,0,24.88,20,4.89,4.89,0,0,0,20,15.12Zm0,8.05A3.17,3.17,0,1,1,23.17,20,3.17,3.17,0,0,1,20,23.17Z" fill="#fff"/><circle cx="25.07" cy="14.93" r="1.14" fill="#fff"/></g></svg>