<svg xmlns="http://www.w3.org/2000/svg" viewBox="0 0 40 40"><g class="color1"><circle cx="20" cy="20" r="16" fill="#0073aa"/></g><g class="color2"><path d="M20,9A11,11,0,1,0,31,20,11,11,0,0,0,20,9ZM10.11,20A9.87,9.87,0,0,1,11,16L15.68,28.9A9.89,9.89,0,0,1,10.11,20ZM20,29.89a9.85,9.85,0,0,1-2.79-.4l3-8.63,3,8.33.07.14A9.86,9.86,0,0,1,20,29.89Zm1.36-14.53c.6,0,1.13-.09,1.13-.09a.41.41,0,0,0-.06-.82s-1.6.13-2.63.13-2.61-.13-2.61-.13a.41.41,0,0,0-.06.82s.5.06,1,.09l1.54,4.22-2.17,6.5-3.6-10.72c.6,0,1.13-.09,1.13-.09a.41.41,0,0,0-.06-.82s-1.6.13-2.64.13h-.63a9.88,9.88,0,0,1,14.94-1.86h-.13a1.71,1.71,0,0,0-1.66,1.75,4.61,4.61,0,0,0,1,2.32,5.19,5.19,0,0,1,.82,2.73,11.92,11.92,0,0,1-.76,3.2l-1,3.29Zm7.32-.1A9.89,9.89,0,0,1,25,28.55l3-8.74a9.18,9.18,0,0,0,.75-3.54A8,8,0,0,0,28.68,15.26Z" fill="#fff"/></g></svg>