<svg xmlns="http://www.w3.org/2000/svg" viewBox="0 0 40 40"><g class="color1"><circle cx="20" cy="20" r="16" fill="#25d366"/></g><g class="color2"><g class="WA_Logo" data-name="WA Logo"><path d="M27.3,12.68a10,10,0,0,0-15.67,12l-1.42,5.16,5.28-1.38a10,10,0,0,0,4.76,1.21h0a10,10,0,0,0,7-17ZM20.26,28h0A8.3,8.3,0,0,1,16,26.85l-.3-.18-3.14.82.84-3.06-.2-.31a8.29,8.29,0,0,1,7-12.68,8.28,8.28,0,0,1,8.27,8.28A8.28,8.28,0,0,1,20.26,28Z" fill="#fff" fill-rule="evenodd"/></g><path d="M25.27,22.09c-.06-.1-.23-.16-.47-.29s-1.48-.73-1.71-.81-.39-.12-.55.13-.65.81-.79,1-.29.19-.54.06a6.56,6.56,0,0,1-2-1.23,7.94,7.94,0,0,1-1.39-1.72.37.37,0,0,1,.11-.51c.11-.11.25-.29.38-.44a1.69,1.69,0,0,0,.24-.41.43.43,0,0,0,0-.44c-.06-.12-.56-1.35-.76-1.85s-.41-.42-.56-.42h-.48a.88.88,0,0,0-.66.31,2.78,2.78,0,0,0-.87,2.07,4.91,4.91,0,0,0,1,2.58,11.26,11.26,0,0,0,4.25,3.76c.6.25,1.06.4,1.42.52a3.47,3.47,0,0,0,1.57.1,2.54,2.54,0,0,0,1.68-1.19A2.14,2.14,0,0,0,25.27,22.09Z" fill="#fff" fill-rule="evenodd"/></g></svg>