<svg xmlns="http://www.w3.org/2000/svg" viewBox="0 0 40 40"><g class="color1"><rect x="4" y="4" width="32" height="32" fill="#e60023"/></g><g class="color2"><path d="M25.92,11.91a7.79,7.79,0,0,0-5.46-2.09,8.61,8.61,0,0,0-6.33,2.44,7.24,7.24,0,0,0-2.13,5c0,2.27.95,4,2.54,4.65a.7.7,0,0,0,.31.07.72.72,0,0,0,.7-.57c0-.2.17-.7.23-.92a.86.86,0,0,0-.23-.92,3,3,0,0,1-.67-2,5.08,5.08,0,0,1,5.27-5.12c2.72,0,4.41,1.55,4.41,4a8.45,8.45,0,0,1-.95,4.1,2.83,2.83,0,0,1-2.33,1.63,1.56,1.56,0,0,1-1.23-.56,1.41,1.41,0,0,1-.25-1.23c.12-.51.29-1.05.45-1.57a9.69,9.69,0,0,0,.57-2.54,1.86,1.86,0,0,0-1.87-2c-1.41,0-2.52,1.44-2.52,3.27a5.16,5.16,0,0,0,.34,1.84c-.17.75-1.23,5.25-1.43,6.09-.12.5-.82,4.4.34,4.72s2.46-3.46,2.58-3.89.44-1.67.64-2.48a4,4,0,0,0,2.63,1,5.83,5.83,0,0,0,4.7-2.35A9.46,9.46,0,0,0,28,16.67,6.64,6.64,0,0,0,25.92,11.91Z" fill="#fff"/></g></svg>