<svg xmlns="http://www.w3.org/2000/svg" viewBox="0 0 40 40"><g class="color1"><path d="M20,4A16,16,0,1,0,36,20,16,16,0,0,0,20,4Zm0,5a11,11,0,0,1,10,6.42H27.89a9.17,9.17,0,0,0-4.32-3.84A13.18,13.18,0,0,1,25,15.42H23.16c-.69-2.79-1.95-4.59-3.12-4.59s-2.43,1.8-3.12,4.59H15a13.2,13.2,0,0,1,1.39-3.84,9.17,9.17,0,0,0-4.32,3.84H10A11,11,0,0,1,20,9Zm3.64,8-1.58,6h-1L20,19l-1,4H18l-1.64-6h1.29l.82,4,1.08-4h.9l1.07,4,.83-4ZM8.52,17H9.81l.82,4,1.08-4h.9l1.07,4,.83-4H15.8l-1.58,6h-1l-1.05-4-1.05,4h-1ZM24.58,30A11,11,0,0,1,10,24.58h2.11a9.17,9.17,0,0,0,4.32,3.84A13.18,13.18,0,0,1,15,24.58h1.88c.69,2.79,1.95,4.59,3.12,4.59s2.43-1.8,3.12-4.59H25a13.2,13.2,0,0,1-1.39,3.84,9.17,9.17,0,0,0,4.32-3.84H30A11,11,0,0,1,24.58,30Zm5.32-7h-1l-1-4L26.8,23h-1l-1.6-6h1.29l.82,4,1.08-4h.9l1.07,4,.83-4h1.29Z" fill="#32373c"/></g></svg>