<svg xmlns="http://www.w3.org/2000/svg" viewBox="0 0 40 40"><g class="color1"><path d="M20,4A16,16,0,1,0,36,20,16,16,0,0,0,20,4Zm8.07,13v.69a10.9,10.9,0,0,1-11,10.8h0a10.71,10.71,0,0,1-5.89-1.74,7.09,7.09,0,0,0,.92.05,7.77,7.77,0,0,0,4.79-1.65,3.85,3.85,0,0,1-3.6-2.68,3.55,3.55,0,0,0,.73.08,3.77,3.77,0,0,0,1-.14,3.85,3.85,0,0,1-3.06-3.84,3.78,3.78,0,0,0,1.74.48A3.83,3.83,0,0,1,12,15.8a3.91,3.91,0,0,1,.48-1.92,10.9,10.9,0,0,0,8,4,3.71,3.71,0,0,1-.1-.88,3.86,3.86,0,0,1,3.88-3.81A3.78,3.78,0,0,1,27,14.41a8,8,0,0,0,2.45-.94,3.85,3.85,0,0,1-1.7,2.14A8.13,8.13,0,0,0,30,15,8.31,8.31,0,0,1,28.07,17Z" fill="#1da1f2"/></g></svg>