<svg xmlns="http://www.w3.org/2000/svg" viewBox="0 0 40 40"><g class="color1"><path d="M27.41,14.4a3.11,3.11,0,0,0-1.81-1.81,5,5,0,0,0-1.76-.32c-1-.06-1.3-.06-3.84-.06s-2.84.06-3.84.06a5,5,0,0,0-1.76.32,3.11,3.11,0,0,0-1.81,1.81,5,5,0,0,0-.32,1.76c-.06,1-.06,1.3-.06,3.84s.06,2.84.06,3.84a5,5,0,0,0,.32,1.76,3.11,3.11,0,0,0,1.81,1.81,5,5,0,0,0,1.76.32c1,.06,1.3.06,3.84.06s2.84,0,3.84-.06a5,5,0,0,0,1.76-.32,3.11,3.11,0,0,0,1.81-1.81,5,5,0,0,0,.32-1.76c.06-1,.06-1.3.06-3.84s0-2.84-.06-3.84A5,5,0,0,0,27.41,14.4ZM20,24.88A4.88,4.88,0,1,1,24.88,20,4.87,4.87,0,0,1,20,24.88Zm5.07-8.81a1.14,1.14,0,1,1,1.14-1.14A1.14,1.14,0,0,1,25.07,16.07Z" fill="#dd2a7b"/><circle cx="20" cy="20" r="3.17" fill="#dd2a7b"/><path d="M20,4A16,16,0,1,0,36,20,16,16,0,0,0,20,4Zm9.44,19.92a6.66,6.66,0,0,1-.44,2.3A4.77,4.77,0,0,1,26.22,29a6.66,6.66,0,0,1-2.3.44c-1,.06-1.34.06-3.92.06s-2.92-.06-3.92-.06a6.66,6.66,0,0,1-2.3-.44A4.77,4.77,0,0,1,11,26.22a6.66,6.66,0,0,1-.44-2.3c-.06-1-.06-1.34-.06-3.92s0-2.92.06-3.92a6.66,6.66,0,0,1,.44-2.3A4.77,4.77,0,0,1,13.78,11a6.66,6.66,0,0,1,2.3-.44c1-.06,1.34-.06,3.92-.06s2.92,0,3.92.06a6.66,6.66,0,0,1,2.3.44A4.77,4.77,0,0,1,29,13.78a6.66,6.66,0,0,1,.44,2.3c.06,1,.06,1.34.06,3.92S29.44,22.92,29.44,23.92Z" fill="#dd2a7b"/></g></svg>