<svg xmlns="http://www.w3.org/2000/svg" viewBox="0 0 40 40"><g class="color1"><path d="M20,4A16,16,0,1,0,36,20,16,16,0,0,0,20,4ZM30.06,25.13A2.64,2.64,0,0,1,28.2,27c-1.63.44-8.2.44-8.2.44s-6.57,0-8.2-.44a2.63,2.63,0,0,1-1.86-1.91A28,28,0,0,1,9.5,20a27.56,27.56,0,0,1,.44-5.13A2.64,2.64,0,0,1,11.8,13c1.63-.44,8.2-.44,8.2-.44s6.57,0,8.2.44a2.63,2.63,0,0,1,1.86,1.91A28,28,0,0,1,30.5,20,27.56,27.56,0,0,1,30.06,25.13Z" fill="red"/><polygon points="17.85 23.12 23.34 20 17.85 16.88 17.85 23.12" fill="red"/></g></svg>