<svg xmlns="http://www.w3.org/2000/svg" viewBox="0 0 40 40"><g class="color1"><path d="M4,4V36H36V4ZM20,8a12,12,0,0,1,10.91,7H28.66a10.17,10.17,0,0,0-4.72-4.19A14.61,14.61,0,0,1,25.5,15H23.41c-.76-3-2.13-5-3.41-5s-2.65,2-3.41,5H14.5a14.61,14.61,0,0,1,1.56-4.19A10.17,10.17,0,0,0,11.34,15H9.09A12,12,0,0,1,20,8Zm4,8.77-1.73,6.46H21.15L20,18.87l-1.14,4.36H17.75L16,16.77h1.41l.89,4.41,1.17-4.41h1l1.17,4.41.9-4.41Zm-15.12,0,.9,4.41L11,16.77h1l1.17,4.41L14,16.77h1.41l-1.73,6.46h-1.1l-1.15-4.36L10.3,23.23H9.2L7.48,16.77ZM25,30.91A12,12,0,0,1,9.09,25h2.25a10.17,10.17,0,0,0,4.72,4.19A14.61,14.61,0,0,1,14.5,25h2.09c.76,3,2.13,5,3.41,5s2.65-2,3.41-5H25.5a14.61,14.61,0,0,1-1.56,4.19A10.17,10.17,0,0,0,28.66,25h2.25A12,12,0,0,1,25,30.91Zm5.8-7.68H29.7l-1.15-4.36-1.14,4.36H26.3l-1.72-6.46H26l.9,4.41,1.17-4.41h1l1.17,4.41.91-4.41h1.4Z" fill="#32373c"/></g></svg>