<svg xmlns="http://www.w3.org/2000/svg" viewBox="0 0 40 40"><g class="color1"><path d="M20,5.9a14,14,0,0,1,7.88,2.41A14.18,14.18,0,0,1,33,14.51a14.06,14.06,0,0,1-1.3,13.37A14.18,14.18,0,0,1,25.49,33a14.06,14.06,0,0,1-13.37-1.3A14.18,14.18,0,0,1,7,25.49a14.06,14.06,0,0,1,1.3-13.37A14.18,14.18,0,0,1,14.51,7,14,14,0,0,1,20,5.9M20,5A15,15,0,1,0,35,20,15,15,0,0,0,20,5Z" fill="#0073aa"/><path d="M7.5,20a12.51,12.51,0,0,0,7.05,11.25l-6-16.34A12.55,12.55,0,0,0,7.5,20Zm20.94-.63a6.62,6.62,0,0,0-1-3.45A5.8,5.8,0,0,1,26.18,13a2.16,2.16,0,0,1,2.1-2.22h.16A12.5,12.5,0,0,0,9.56,13.13l.8,0c1.31,0,3.33-.16,3.33-.16a.52.52,0,0,1,.08,1s-.68.08-1.43.12l4.55,13.54,2.74-8.21-1.95-5.33c-.67,0-1.31-.12-1.31-.12a.52.52,0,0,1,.08-1s2.06.16,3.29.16S23.07,13,23.07,13a.52.52,0,0,1,.08,1s-.67.08-1.43.12l4.52,13.44,1.29-4.09A14.55,14.55,0,0,0,28.44,19.37Zm-8.22,1.72L16.47,32a12.48,12.48,0,0,0,7.68-.2l-.09-.17ZM31,14a10.38,10.38,0,0,1,.08,1.29,11.7,11.7,0,0,1-.95,4.48l-3.82,11A12.5,12.5,0,0,0,31,14Z" fill="#0073aa"/></g></svg>