<svg xmlns="http://www.w3.org/2000/svg" viewBox="0 0 40 40"><g class="color1"><path d="M9.56,10.93a.65.65,0,0,0-.58.28.61.61,0,0,0,0,.64l2.93,5.07a0,0,0,0,1,0,0l-4.58,8.1a.69.69,0,0,0,0,.68.63.63,0,0,0,.55.3h4.34a1.31,1.31,0,0,0,1.16-.85l4.68-8.26-3-5.19a1.34,1.34,0,0,0-1.22-.8Z" fill="#005a5f"/></g><g class="color3"><path d="M27.73,5a1.29,1.29,0,0,0-1.16.82S17.25,22.35,17,22.9c0,0,6.14,11.28,6.14,11.28A1.37,1.37,0,0,0,24.3,35h4.32a.64.64,0,0,0,.58-.28.67.67,0,0,0,0-.66l-6.1-11.15a0,0,0,0,1,0,0L32.67,5.94a.67.67,0,0,0,0-.66A.65.65,0,0,0,32.1,5Z" fill="#cfdc00"/></g></svg>