<svg xmlns="http://www.w3.org/2000/svg" viewBox="0 0 40 40"><g class="color1"><path d="M20,4A16,16,0,1,0,36,20,16,16,0,0,0,20,4ZM14.88,24.86H12a.44.44,0,0,1-.37-.21.45.45,0,0,1,0-.45l3.11-5.47-2-3.41a.42.42,0,0,1,0-.43.43.43,0,0,1,.39-.18H16a.91.91,0,0,1,.82.53l2,3.49-3.14,5.55A.89.89,0,0,1,14.88,24.86ZM28.63,11.38,22.19,22.76l4.1,7.49a.41.41,0,0,1-.39.63H23a.91.91,0,0,1-.81-.55l-4.13-7.58c.2-.37,6.47-11.47,6.47-11.47a.84.84,0,0,1,.77-.56l2.94,0a.44.44,0,0,1,.39.19A.51.51,0,0,1,28.63,11.38Z" fill="#005a5f"/></g></svg>