<svg xmlns="http://www.w3.org/2000/svg" viewBox="0 0 40 40"><g class="color1"><path d="M20,4A16,16,0,1,0,36,20,16,16,0,0,0,20,4Zm8.25,14.43a8.45,8.45,0,0,1-3.32-.77,9.05,9.05,0,0,1-1.28-.74v6.93A6.06,6.06,0,0,1,22.56,27a5.89,5.89,0,0,1-4.68,2.54,5.73,5.73,0,0,1-3.23-.81,6,6,0,0,1-2.89-4.52V23a6,6,0,0,1,6.6-5.33l.31,0v3.51a2.77,2.77,0,0,0-2.39.3,2.6,2.6,0,0,0-1.08,1.38,3.07,3.07,0,0,0-.11,1.28,2.7,2.7,0,0,0,5,1,1.85,1.85,0,0,0,.33-.85c.07-1.41,0-2.82,0-4.24v-9.6h3.09a4.89,4.89,0,0,0,1.39,3.3,5.65,5.65,0,0,0,3.35,1.42Z" fill="#010101"/></g></svg>