<svg xmlns="http://www.w3.org/2000/svg" viewBox="0 0 40 40"><g class="color1"><rect x="4" y="4" width="32" height="32" fill="#005a5f"/></g><g class="color2"><path d="M12.56,12.93a.49.49,0,0,0-.43.2.48.48,0,0,0,0,.49l2.19,3.79a0,0,0,0,1,0,0L10.89,23.5a.52.52,0,0,0,0,.5.45.45,0,0,0,.41.23h3.25a1,1,0,0,0,.87-.64l3.5-6.18L16.7,13.52a1,1,0,0,0-.91-.59Z" fill="#fff"/><path d="M26.16,8.49a1,1,0,0,0-.86.62L18.09,21.88s4.6,8.45,4.6,8.45a1,1,0,0,0,.91.61h3.23a.47.47,0,0,0,.43-.2.5.5,0,0,0,0-.5l-4.57-8.35v0L29.86,9.2a.52.52,0,0,0,0-.5.48.48,0,0,0-.43-.21Z" fill="#fff"/></g></svg>