<svg xmlns="http://www.w3.org/2000/svg" viewBox="0 0 40 40"><g class="color1"><rect x="4" y="4" width="32" height="32" fill="#010101"/></g><g class="color2"><path d="M20.46,9.52c1.15,0,2.28,0,3.42,0a5.46,5.46,0,0,0,1.53,3.65,6.21,6.21,0,0,0,3.71,1.57v3.52a9.13,9.13,0,0,1-3.67-.85A9.47,9.47,0,0,1,24,16.58c0,2.56,0,5.11,0,7.66a6.64,6.64,0,0,1-1.18,3.44,6.49,6.49,0,0,1-5.17,2.81,6.39,6.39,0,0,1-3.57-.9,6.58,6.58,0,0,1-3.19-5c0-.43,0-.87,0-1.3a6.6,6.6,0,0,1,7.64-5.85c0,1.3,0,2.59,0,3.89a3,3,0,0,0-2.64.33,3,3,0,0,0-1.19,1.53,3.47,3.47,0,0,0-.12,1.4,3,3,0,0,0,3.06,2.52A2.94,2.94,0,0,0,20,25.7a2,2,0,0,0,.36-.93c.09-1.57.05-3.12.07-4.69,0-3.53,0-7,0-10.56Z" fill="#fff"/></g></svg>