<svg xmlns="http://www.w3.org/2000/svg" viewBox="0 0 40 40"><g class="color1"><circle cx="20" cy="19.99" r="16" fill="#e60023"/></g><g class="color2"><path d="M17.23,31.2l1-3.81a4.24,4.24,0,0,0,3.66,1.84c4.82,0,8.29-4.43,8.29-9.95,0-5.3-4.32-9.25-9.86-9.25-6.91,0-10.58,4.64-10.58,9.68C9.75,22.07,11,25,13,25.91c.3.15.47.08.54-.21s.33-1.31.45-1.81a.5.5,0,0,0-.11-.46,6.26,6.26,0,0,1-1.19-3.65,6.93,6.93,0,0,1,7.23-6.94,6.31,6.31,0,0,1,6.69,6.5c0,4.32-2.18,7.33-5,7.33a2.33,2.33,0,0,1-2.37-2.9c.46-1.91,1.33-4,1.33-5.34a2,2,0,0,0-2-2.25c-1.61,0-2.9,1.66-2.9,3.89a5.86,5.86,0,0,0,.47,2.37s-1.58,6.7-1.87,8A15.33,15.33,0,0,0,14.18,35c.36.14.71.28,1.08.4A17.25,17.25,0,0,0,17.23,31.2Z" fill="#fff"/></g></svg>