<svg xmlns="http://www.w3.org/2000/svg" viewBox="0 0 40 40"><g class="color1"><rect x="4" y="4" width="32" height="32" rx="3.2" fill="#1ab7ea"/></g><g class="color2"><path d="M31.11,14.49Q31,17.86,26.4,23.74q-4.72,6.12-8,6.13-2,0-3.42-3.74-.95-3.42-1.87-6.84c-.69-2.49-1.43-3.73-2.23-3.73a7,7,0,0,0-1.81,1.09L8,15.25c1.14-1,2.27-2,3.37-3,1.53-1.32,2.67-2,3.43-2.08q2.7-.25,3.32,3.69.68,4.26.94,5.3c.52,2.36,1.09,3.53,1.71,3.53S22,21.92,23,20.39a9,9,0,0,0,1.56-3.49q.21-2-1.56-2a4.38,4.38,0,0,0-1.71.38Q23,9.72,27.75,9.87,31.32,10,31.11,14.49Z" fill="#fff"/></g></svg>