<svg class="color1" xmlns="http://www.w3.org/2000/svg" xmlns:xlink="http://www.w3.org/1999/xlink" viewBox="0 0 40 40"><defs><radialGradient id="Instagram-Verlauf" cx="12.06" cy="38.14" r="30.81" gradientUnits="userSpaceOnUse"><stop offset="0" stop-color="#fd5"/><stop offset="0.1" stop-color="#fd5"/><stop offset="0.5" stop-color="#ff543e"/><stop offset="1" stop-color="#c837ab"/></radialGradient></defs><path d="M13.41,4A9.44,9.44,0,0,0,4,13.41V26.59A9.44,9.44,0,0,0,13.41,36H26.59A9.44,9.44,0,0,0,36,26.59V13.41A9.44,9.44,0,0,0,26.59,4Zm0,2.91H26.59a6.49,6.49,0,0,1,6.5,6.5V26.59a6.49,6.49,0,0,1-6.5,6.5H13.41a6.49,6.49,0,0,1-6.5-6.5V13.41A6.49,6.49,0,0,1,13.41,6.91Zm15.18,3.18a1.32,1.32,0,1,0,1.32,1.32A1.32,1.32,0,0,0,28.59,10.09ZM20,11.27A8.73,8.73,0,1,0,28.73,20,8.76,8.76,0,0,0,20,11.27Zm0,2.91A5.82,5.82,0,1,1,14.18,20,5.8,5.8,0,0,1,20,14.18Z" fill="url(#Instagram-Verlauf)"/></svg>