<svg xmlns="http://www.w3.org/2000/svg" viewBox="0 0 40 40"><g class="color1"><rect x="4" y="4" width="32" height="32" fill="#758ca3"/></g><g class="color2"><path d="M12.43,13.58,19,18.15a1.84,1.84,0,0,0,2.1,0l6.52-4.57ZM29.17,14.7,22.1,19.65a3.67,3.67,0,0,1-4.2,0L10.83,14.7V25.5a.92.92,0,0,0,.92.92h16.5a.92.92,0,0,0,.92-.92ZM11.75,11.75h16.5A2.75,2.75,0,0,1,31,14.5v11a2.75,2.75,0,0,1-2.75,2.75H11.75A2.75,2.75,0,0,1,9,25.5v-11A2.75,2.75,0,0,1,11.75,11.75Z" fill="#fff" fill-rule="evenodd"/></g></svg>