<svg xmlns="http://www.w3.org/2000/svg" viewBox="0 0 40 40"><g class="color1"><rect x="4" y="4" width="32" height="32" fill="#32373c"/></g><g class="color2"><path d="M20,8A12,12,0,0,0,9.09,15h2.25a10.18,10.18,0,0,1,4.72-4.19A14.54,14.54,0,0,0,14.5,15h2.09c.76-3,2.13-5,3.41-5s2.65,2,3.41,5H25.5a14.54,14.54,0,0,0-1.56-4.19A10.18,10.18,0,0,1,28.66,15h2.25A12,12,0,0,0,20,8Z" fill="#fff"/><path d="M9.09,25a12,12,0,0,0,21.82,0H28.66a10.18,10.18,0,0,1-4.72,4.19A14.54,14.54,0,0,0,25.5,25H23.41c-.76,3-2.13,5-3.41,5s-2.65-2-3.41-5H14.5a14.54,14.54,0,0,0,1.56,4.19A10.18,10.18,0,0,1,11.34,25Z" fill="#fff"/><path d="M7.48,16.77h1.4l.9,4.41L11,16.77h1l1.17,4.41L14,16.77h1.41l-1.73,6.46h-1.1l-1.15-4.36L10.3,23.23H9.2Z" fill="#fff"/><path d="M16,16.77h1.41l.89,4.41,1.17-4.41h1l1.17,4.41.9-4.41H24l-1.73,6.46H21.15L20,18.87l-1.14,4.36H17.75Z" fill="#fff"/><path d="M24.58,16.77H26l.9,4.41,1.17-4.41h1l1.17,4.41.91-4.41h1.4L30.8,23.23H29.7l-1.15-4.36-1.14,4.36H26.3Z" fill="#fff"/></g></svg>