<svg xmlns="http://www.w3.org/2000/svg" viewBox="0 0 40 40"><g class="color1"><path d="M20,5a15,15,0,1,1-5.85,1.18A15,15,0,0,1,20,5m0-1A16,16,0,1,0,36,20,16,16,0,0,0,20,4Z" fill="#0073aa"/><path d="M6.67,20a13.32,13.32,0,0,0,7.51,12L7.82,14.57A13.31,13.31,0,0,0,6.67,20ZM29,19.33a7,7,0,0,0-1.1-3.68,6.31,6.31,0,0,1-1.31-3.13,2.31,2.31,0,0,1,2.24-2.36H29A13.33,13.33,0,0,0,8.86,12.68h.86c1.39,0,3.55-.17,3.55-.17a.55.55,0,0,1,.09,1.1s-.73.09-1.53.13l4.86,14.44,2.91-8.75-2.07-5.69c-.72,0-1.4-.13-1.4-.13a.55.55,0,0,1,.08-1.1s2.2.17,3.51.17,3.56-.17,3.56-.17a.55.55,0,0,1,.08,1.1s-.72.09-1.52.13l4.82,14.33L28,23.72A15.36,15.36,0,0,0,29,19.33Zm-8.77,1.84-4,11.62a13.45,13.45,0,0,0,8.2-.21,1.14,1.14,0,0,1-.1-.19ZM31.7,13.6A9.85,9.85,0,0,1,31.79,15a12.57,12.57,0,0,1-1,4.78L26.7,31.52a13.34,13.34,0,0,0,5-17.92Z" fill="#0073aa"/></g></svg>